<mxfile host="app.diagrams.net" agent="Mozilla/5.0 (Windows NT 10.0; Win64; x64) AppleWebKit/537.36 (KHTML, like Gecko) Chrome/139.0.0.0 Safari/537.36" version="28.2.4">
  <diagram name="Trang-1" id="GnMHrA3Xf9nCQ_ObnbJa">
    <mxGraphModel grid="1" page="0" gridSize="10" guides="1" tooltips="1" connect="1" arrows="1" fold="1" pageScale="1" pageWidth="827" pageHeight="1169" math="0" shadow="0">
      <root>
        <mxCell id="0" />
        <mxCell id="1" parent="0" />
        <mxCell id="b4jPwwFUiy6bTyghq0up-15" value="" style="rounded=0;whiteSpace=wrap;html=1;dashed=1;fillColor=none;" vertex="1" parent="1">
          <mxGeometry x="-220" y="340" width="1290" height="260" as="geometry" />
        </mxCell>
        <mxCell id="pKorjsDdH1AP8A5eabOs-5" value="&lt;div style=&quot;&quot;&gt;&lt;span style=&quot;background-color: transparent; color: light-dark(rgb(0, 0, 0), rgb(255, 255, 255));&quot;&gt;&lt;font style=&quot;font-size: 13px;&quot;&gt;CartService&lt;/font&gt;&lt;/span&gt;&lt;/div&gt;" style="rounded=0;whiteSpace=wrap;html=1;align=center;verticalAlign=top;fillColor=#1ba1e2;fontColor=#ffffff;strokeColor=#006EAF;" vertex="1" parent="1">
          <mxGeometry x="-200" y="400" width="300" height="150" as="geometry" />
        </mxCell>
        <mxCell id="pKorjsDdH1AP8A5eabOs-10" value="&lt;font style=&quot;font-size: 11px;&quot;&gt;&lt;span style=&quot;background-color: transparent; color: light-dark(rgb(0, 0, 0), rgb(255, 255, 255));&quot;&gt;POST /cart/api/carts&lt;/span&gt;&lt;br&gt;&lt;span style=&quot;background-color: transparent; color: light-dark(rgb(0, 0, 0), rgb(255, 255, 255));&quot;&gt;PUT /cart/api/carts&lt;/span&gt;&lt;br&gt;&lt;span style=&quot;background-color: transparent; color: light-dark(rgb(0, 0, 0), rgb(255, 255, 255));&quot;&gt;GET /cart/api/carts/{cart_id}&lt;/span&gt;&lt;br&gt;&lt;span style=&quot;background-color: transparent; color: light-dark(rgb(0, 0, 0), rgb(255, 255, 255));&quot;&gt;PUT /cart/api/carts/{cart_id}/checkout&lt;/span&gt;&lt;br&gt;&lt;/font&gt;&lt;div&gt;&lt;font style=&quot;font-size: 11px;&quot;&gt;DELETE /cart/api/carts/{cart_id}/items/{product_id}&lt;/font&gt;&lt;/div&gt;" style="rounded=1;whiteSpace=wrap;html=1;align=left;" vertex="1" parent="1">
          <mxGeometry x="-180" y="440" width="250" height="100" as="geometry" />
        </mxCell>
        <mxCell id="pKorjsDdH1AP8A5eabOs-24" value="" style="group;fontColor=#ffffff;fillColor=#1ba1e2;strokeColor=#006EAF;" vertex="1" connectable="0" parent="1">
          <mxGeometry x="120" y="400" width="300" height="150" as="geometry" />
        </mxCell>
        <mxCell id="pKorjsDdH1AP8A5eabOs-8" value="&lt;div style=&quot;&quot;&gt;CatalogService&lt;/div&gt;" style="rounded=0;whiteSpace=wrap;html=1;align=center;verticalAlign=top;fontColor=#ffffff;fillColor=#1ba1e2;strokeColor=#006EAF;" vertex="1" parent="pKorjsDdH1AP8A5eabOs-24">
          <mxGeometry width="300" height="150" as="geometry" />
        </mxCell>
        <mxCell id="pKorjsDdH1AP8A5eabOs-11" value="&lt;div&gt;&lt;span style=&quot;font-size: 11px;&quot;&gt;POST /catalog/api/products&lt;/span&gt;&lt;/div&gt;&lt;div&gt;&lt;span style=&quot;font-size: 11px;&quot;&gt;GET /catalog/api/products/{page}/{high_price}&lt;/span&gt;&lt;/div&gt;&lt;div&gt;&lt;span style=&quot;font-size: 11px;&quot;&gt;GET /catalog/api/products/{product_id}&lt;/span&gt;&lt;/div&gt;" style="rounded=1;whiteSpace=wrap;html=1;align=left;" vertex="1" parent="pKorjsDdH1AP8A5eabOs-24">
          <mxGeometry x="25" y="35" width="250" height="100" as="geometry" />
        </mxCell>
        <mxCell id="pKorjsDdH1AP8A5eabOs-26" value="" style="group" vertex="1" connectable="0" parent="1">
          <mxGeometry x="760" y="400" width="300" height="150" as="geometry" />
        </mxCell>
        <mxCell id="pKorjsDdH1AP8A5eabOs-7" value="&lt;div style=&quot;&quot;&gt;RatingService&lt;/div&gt;" style="rounded=0;whiteSpace=wrap;html=1;align=center;verticalAlign=top;fillColor=#1ba1e2;fontColor=#ffffff;strokeColor=#006EAF;" vertex="1" parent="pKorjsDdH1AP8A5eabOs-26">
          <mxGeometry width="300" height="150" as="geometry" />
        </mxCell>
        <mxCell id="pKorjsDdH1AP8A5eabOs-13" value="&lt;div&gt;&lt;span style=&quot;font-size: 11px;&quot;&gt;GET /rating/api/ratings&lt;/span&gt;&lt;/div&gt;&lt;div&gt;&lt;span style=&quot;font-size: 11px;&quot;&gt;POST /rating/api/ratings&lt;/span&gt;&lt;/div&gt;&lt;div&gt;&lt;span style=&quot;font-size: 11px;&quot;&gt;GET /rating/api/ratings/{product_id}&lt;/span&gt;&lt;/div&gt;" style="rounded=1;whiteSpace=wrap;html=1;align=left;" vertex="1" parent="pKorjsDdH1AP8A5eabOs-26">
          <mxGeometry x="20" y="40" width="250" height="100" as="geometry" />
        </mxCell>
        <mxCell id="pKorjsDdH1AP8A5eabOs-27" value="" style="group;fillColor=#1ba1e2;fontColor=#ffffff;strokeColor=#006EAF;" vertex="1" connectable="0" parent="1">
          <mxGeometry x="440" y="400" width="300" height="150" as="geometry" />
        </mxCell>
        <mxCell id="pKorjsDdH1AP8A5eabOs-6" value="&lt;div style=&quot;&quot;&gt;InventoryService&lt;/div&gt;" style="rounded=0;whiteSpace=wrap;html=1;align=center;verticalAlign=top;fillColor=#1ba1e2;fontColor=#ffffff;strokeColor=#006EAF;" vertex="1" parent="pKorjsDdH1AP8A5eabOs-27">
          <mxGeometry width="300" height="150" as="geometry" />
        </mxCell>
        <mxCell id="pKorjsDdH1AP8A5eabOs-12" value="&lt;div&gt;GET /inventory/api/availabilities&lt;/div&gt;&lt;div&gt;GET /inventory/api/availabilities/{id}&lt;/div&gt;&lt;div&gt;POST /inventory/api/inventory/migrate&lt;/div&gt;" style="rounded=1;whiteSpace=wrap;html=1;align=left;" vertex="1" parent="pKorjsDdH1AP8A5eabOs-27">
          <mxGeometry x="10" y="40" width="260" height="100" as="geometry" />
        </mxCell>
        <mxCell id="b4jPwwFUiy6bTyghq0up-16" value="Legend" style="shape=table;startSize=30;container=1;collapsible=0;childLayout=tableLayout;fontSize=16;align=left;verticalAlign=top;fillColor=none;strokeColor=none;fontColor=#4D4D4D;fontStyle=1;spacingLeft=6;spacing=0;resizable=0;" vertex="1" parent="1">
          <mxGeometry x="1080" y="470" width="180" height="210" as="geometry" />
        </mxCell>
        <mxCell id="b4jPwwFUiy6bTyghq0up-17" value="" style="shape=tableRow;horizontal=0;startSize=0;swimlaneHead=0;swimlaneBody=0;strokeColor=inherit;top=0;left=0;bottom=0;right=0;collapsible=0;dropTarget=0;fillColor=none;points=[[0,0.5],[1,0.5]];portConstraint=eastwest;fontSize=12;" vertex="1" parent="b4jPwwFUiy6bTyghq0up-16">
          <mxGeometry y="30" width="180" height="30" as="geometry" />
        </mxCell>
        <mxCell id="b4jPwwFUiy6bTyghq0up-18" value="Person" style="shape=partialRectangle;html=1;whiteSpace=wrap;connectable=0;strokeColor=inherit;overflow=hidden;fillColor=#1E4074;top=0;left=0;bottom=0;right=0;pointerEvents=1;fontSize=12;align=left;fontColor=#FFFFFF;gradientColor=none;spacingLeft=10;spacingRight=4;" vertex="1" parent="b4jPwwFUiy6bTyghq0up-17">
          <mxGeometry width="180" height="30" as="geometry">
            <mxRectangle width="180" height="30" as="alternateBounds" />
          </mxGeometry>
        </mxCell>
        <mxCell id="b4jPwwFUiy6bTyghq0up-19" value="" style="shape=tableRow;horizontal=0;startSize=0;swimlaneHead=0;swimlaneBody=0;strokeColor=inherit;top=0;left=0;bottom=0;right=0;collapsible=0;dropTarget=0;fillColor=none;points=[[0,0.5],[1,0.5]];portConstraint=eastwest;fontSize=12;" vertex="1" parent="b4jPwwFUiy6bTyghq0up-16">
          <mxGeometry y="60" width="180" height="30" as="geometry" />
        </mxCell>
        <mxCell id="b4jPwwFUiy6bTyghq0up-20" value="Software System" style="shape=partialRectangle;html=1;whiteSpace=wrap;connectable=0;strokeColor=inherit;overflow=hidden;fillColor=#3162AF;top=0;left=0;bottom=0;right=0;pointerEvents=1;fontSize=12;align=left;fontColor=#FFFFFF;gradientColor=none;spacingLeft=10;spacingRight=4;" vertex="1" parent="b4jPwwFUiy6bTyghq0up-19">
          <mxGeometry width="180" height="30" as="geometry">
            <mxRectangle width="180" height="30" as="alternateBounds" />
          </mxGeometry>
        </mxCell>
        <mxCell id="b4jPwwFUiy6bTyghq0up-21" value="" style="shape=tableRow;horizontal=0;startSize=0;swimlaneHead=0;swimlaneBody=0;strokeColor=inherit;top=0;left=0;bottom=0;right=0;collapsible=0;dropTarget=0;fillColor=none;points=[[0,0.5],[1,0.5]];portConstraint=eastwest;fontSize=12;" vertex="1" parent="b4jPwwFUiy6bTyghq0up-16">
          <mxGeometry y="90" width="180" height="30" as="geometry" />
        </mxCell>
        <mxCell id="b4jPwwFUiy6bTyghq0up-22" value="Container" style="shape=partialRectangle;html=1;whiteSpace=wrap;connectable=0;strokeColor=inherit;overflow=hidden;fillColor=#52a2d8;top=0;left=0;bottom=0;right=0;pointerEvents=1;fontSize=12;align=left;fontColor=#FFFFFF;gradientColor=none;spacingLeft=10;spacingRight=4;" vertex="1" parent="b4jPwwFUiy6bTyghq0up-21">
          <mxGeometry width="180" height="30" as="geometry">
            <mxRectangle width="180" height="30" as="alternateBounds" />
          </mxGeometry>
        </mxCell>
        <mxCell id="b4jPwwFUiy6bTyghq0up-23" value="" style="shape=tableRow;horizontal=0;startSize=0;swimlaneHead=0;swimlaneBody=0;strokeColor=inherit;top=0;left=0;bottom=0;right=0;collapsible=0;dropTarget=0;fillColor=none;points=[[0,0.5],[1,0.5]];portConstraint=eastwest;fontSize=12;" vertex="1" parent="b4jPwwFUiy6bTyghq0up-16">
          <mxGeometry y="120" width="180" height="30" as="geometry" />
        </mxCell>
        <mxCell id="b4jPwwFUiy6bTyghq0up-24" value="Component" style="shape=partialRectangle;html=1;whiteSpace=wrap;connectable=0;strokeColor=inherit;overflow=hidden;fillColor=#7dbef2;top=0;left=0;bottom=0;right=0;pointerEvents=1;fontSize=12;align=left;fontColor=#FFFFFF;gradientColor=none;spacingLeft=10;spacingRight=4;" vertex="1" parent="b4jPwwFUiy6bTyghq0up-23">
          <mxGeometry width="180" height="30" as="geometry">
            <mxRectangle width="180" height="30" as="alternateBounds" />
          </mxGeometry>
        </mxCell>
        <mxCell id="b4jPwwFUiy6bTyghq0up-25" value="" style="shape=tableRow;horizontal=0;startSize=0;swimlaneHead=0;swimlaneBody=0;strokeColor=inherit;top=0;left=0;bottom=0;right=0;collapsible=0;dropTarget=0;fillColor=none;points=[[0,0.5],[1,0.5]];portConstraint=eastwest;fontSize=12;" vertex="1" parent="b4jPwwFUiy6bTyghq0up-16">
          <mxGeometry y="150" width="180" height="30" as="geometry" />
        </mxCell>
        <mxCell id="b4jPwwFUiy6bTyghq0up-26" value="External Person" style="shape=partialRectangle;html=1;whiteSpace=wrap;connectable=0;strokeColor=inherit;overflow=hidden;fillColor=#6b6477;top=0;left=0;bottom=0;right=0;pointerEvents=1;fontSize=12;align=left;fontColor=#FFFFFF;gradientColor=none;spacingLeft=10;spacingRight=4;" vertex="1" parent="b4jPwwFUiy6bTyghq0up-25">
          <mxGeometry width="180" height="30" as="geometry">
            <mxRectangle width="180" height="30" as="alternateBounds" />
          </mxGeometry>
        </mxCell>
        <mxCell id="b4jPwwFUiy6bTyghq0up-27" value="" style="shape=tableRow;horizontal=0;startSize=0;swimlaneHead=0;swimlaneBody=0;strokeColor=inherit;top=0;left=0;bottom=0;right=0;collapsible=0;dropTarget=0;fillColor=none;points=[[0,0.5],[1,0.5]];portConstraint=eastwest;fontSize=12;" vertex="1" parent="b4jPwwFUiy6bTyghq0up-16">
          <mxGeometry y="180" width="180" height="30" as="geometry" />
        </mxCell>
        <mxCell id="b4jPwwFUiy6bTyghq0up-28" value="External Software System" style="shape=partialRectangle;html=1;whiteSpace=wrap;connectable=0;strokeColor=inherit;overflow=hidden;fillColor=#8b8496;top=0;left=0;bottom=0;right=0;pointerEvents=1;fontSize=12;align=left;fontColor=#FFFFFF;gradientColor=none;spacingLeft=10;spacingRight=4;" vertex="1" parent="b4jPwwFUiy6bTyghq0up-27">
          <mxGeometry width="180" height="30" as="geometry">
            <mxRectangle width="180" height="30" as="alternateBounds" />
          </mxGeometry>
        </mxCell>
      </root>
    </mxGraphModel>
  </diagram>
</mxfile>
